<mxfile host="Electron" modified="2023-10-11T17:01:16.949Z" agent="Mozilla/5.0 (Windows NT 10.0; Win64; x64) AppleWebKit/537.36 (KHTML, like Gecko) draw.io/22.0.2 Chrome/114.0.5735.289 Electron/25.8.4 Safari/537.36" etag="9d2VtMt1arMWKvW4U60l" version="22.0.2" type="device">
  <diagram name="Page-1" id="-M5wjVhJBZ1ytjF6Ckxf">
    <mxGraphModel dx="1931" dy="516" grid="1" gridSize="10" guides="1" tooltips="1" connect="1" arrows="1" fold="1" page="1" pageScale="1" pageWidth="827" pageHeight="1169" math="0" shadow="0">
      <root>
        <mxCell id="0" />
        <mxCell id="1" parent="0" />
        <mxCell id="Y8IaVHH20ZB9HYG7-EvQ-4" value="" style="rounded=0;whiteSpace=wrap;html=1;" parent="1" vertex="1">
          <mxGeometry x="50" y="30" width="690" height="470" as="geometry" />
        </mxCell>
        <mxCell id="Y8IaVHH20ZB9HYG7-EvQ-5" value="" style="endArrow=none;html=1;rounded=0;entryX=1.004;entryY=0.106;entryDx=0;entryDy=0;entryPerimeter=0;exitX=0.003;exitY=0.1;exitDx=0;exitDy=0;exitPerimeter=0;" parent="1" source="Y8IaVHH20ZB9HYG7-EvQ-4" target="Y8IaVHH20ZB9HYG7-EvQ-4" edge="1">
          <mxGeometry width="50" height="50" relative="1" as="geometry">
            <mxPoint x="60" y="80" as="sourcePoint" />
            <mxPoint x="440" y="240" as="targetPoint" />
          </mxGeometry>
        </mxCell>
        <mxCell id="Y8IaVHH20ZB9HYG7-EvQ-6" value="main page wireframe" style="text;strokeColor=none;fillColor=none;align=left;verticalAlign=middle;spacingLeft=4;spacingRight=4;overflow=hidden;points=[[0,0.5],[1,0.5]];portConstraint=eastwest;rotatable=0;whiteSpace=wrap;html=1;" parent="1" vertex="1">
          <mxGeometry x="334" y="40" width="80" height="30" as="geometry" />
        </mxCell>
        <mxCell id="1BZo2q3pD9BnLDDTUO7o-1" value="logo" style="rounded=0;whiteSpace=wrap;html=1;" vertex="1" parent="1">
          <mxGeometry x="50" y="70" width="690" height="60" as="geometry" />
        </mxCell>
        <mxCell id="1BZo2q3pD9BnLDDTUO7o-2" value="breadcrumbs" style="rounded=0;whiteSpace=wrap;html=1;" vertex="1" parent="1">
          <mxGeometry x="50" y="110" width="80" height="20" as="geometry" />
        </mxCell>
        <mxCell id="1BZo2q3pD9BnLDDTUO7o-3" value="breadcrumbs" style="rounded=0;whiteSpace=wrap;html=1;" vertex="1" parent="1">
          <mxGeometry x="290" y="110" width="80" height="20" as="geometry" />
        </mxCell>
        <mxCell id="1BZo2q3pD9BnLDDTUO7o-4" value="breadcrumbs" style="rounded=0;whiteSpace=wrap;html=1;" vertex="1" parent="1">
          <mxGeometry x="210" y="110" width="80" height="20" as="geometry" />
        </mxCell>
        <mxCell id="1BZo2q3pD9BnLDDTUO7o-5" value="breadcrumbs" style="rounded=0;whiteSpace=wrap;html=1;" vertex="1" parent="1">
          <mxGeometry x="130" y="110" width="80" height="20" as="geometry" />
        </mxCell>
        <mxCell id="1BZo2q3pD9BnLDDTUO7o-6" value="slideshow&lt;br&gt;image" style="shape=process;whiteSpace=wrap;html=1;backgroundOutline=1;" vertex="1" parent="1">
          <mxGeometry x="100" y="160" width="190" height="80" as="geometry" />
        </mxCell>
        <mxCell id="1BZo2q3pD9BnLDDTUO7o-7" value="" style="triangle;whiteSpace=wrap;html=1;" vertex="1" parent="1">
          <mxGeometry x="270" y="190" width="20" height="30" as="geometry" />
        </mxCell>
        <mxCell id="1BZo2q3pD9BnLDDTUO7o-8" value="" style="triangle;whiteSpace=wrap;html=1;rotation=-180;" vertex="1" parent="1">
          <mxGeometry x="100" y="190" width="20" height="30" as="geometry" />
        </mxCell>
        <mxCell id="1BZo2q3pD9BnLDDTUO7o-9" value="cookies pop-up" style="rounded=0;whiteSpace=wrap;html=1;" vertex="1" parent="1">
          <mxGeometry x="440" y="430" width="300" height="70" as="geometry" />
        </mxCell>
        <mxCell id="1BZo2q3pD9BnLDDTUO7o-10" value="links easy to quiz question" style="rounded=0;whiteSpace=wrap;html=1;" vertex="1" parent="1">
          <mxGeometry x="400" y="160" width="120" height="60" as="geometry" />
        </mxCell>
        <mxCell id="1BZo2q3pD9BnLDDTUO7o-11" value="links hard to quiz question" style="rounded=0;whiteSpace=wrap;html=1;" vertex="1" parent="1">
          <mxGeometry x="410" y="260" width="120" height="60" as="geometry" />
        </mxCell>
        <mxCell id="1BZo2q3pD9BnLDDTUO7o-12" value="this slideshow will have the hyperlinks of different quizzes the user can complete out of the website" style="rounded=0;whiteSpace=wrap;html=1;" vertex="1" parent="1">
          <mxGeometry x="-160" y="175" width="170" height="105" as="geometry" />
        </mxCell>
        <mxCell id="1BZo2q3pD9BnLDDTUO7o-13" value="" style="endArrow=classic;startArrow=classic;html=1;rounded=0;exitX=0.992;exitY=0.633;exitDx=0;exitDy=0;exitPerimeter=0;entryX=0.072;entryY=0.389;entryDx=0;entryDy=0;entryPerimeter=0;" edge="1" parent="1" source="1BZo2q3pD9BnLDDTUO7o-12" target="Y8IaVHH20ZB9HYG7-EvQ-4">
          <mxGeometry width="50" height="50" relative="1" as="geometry">
            <mxPoint x="390" y="290" as="sourcePoint" />
            <mxPoint x="440" y="240" as="targetPoint" />
          </mxGeometry>
        </mxCell>
        <mxCell id="1BZo2q3pD9BnLDDTUO7o-14" value="next to the link will be a blur about the quiz" style="text;html=1;strokeColor=none;fillColor=none;align=center;verticalAlign=middle;whiteSpace=wrap;rounded=0;" vertex="1" parent="1">
          <mxGeometry x="520" y="160" width="200" height="60" as="geometry" />
        </mxCell>
        <mxCell id="1BZo2q3pD9BnLDDTUO7o-15" value="next to the link will be a blur about the quiz" style="text;html=1;strokeColor=none;fillColor=none;align=center;verticalAlign=middle;whiteSpace=wrap;rounded=0;" vertex="1" parent="1">
          <mxGeometry x="530" y="260" width="200" height="60" as="geometry" />
        </mxCell>
      </root>
    </mxGraphModel>
  </diagram>
</mxfile>
